<svg height="512" viewBox="0 0 256 256" width="512" xmlns="http://www.w3.org/2000/svg"><path d="m69.2 2.5c-35.9 0-65 29.1-65 65s29.1 65 65 65 65-29.1 65-65-29.1-65-65-65z" fill="#facb35"/><path d="m186.8 123.5c-35.9 0-65 29.1-65 65s29.1 65 65 65 65-29.1 65-65-29.1-65-65-65z" fill="#facb35"/><path d="m69.2 13.5c-29.8 0-54 24.2-54 54s24.2 54 54 54 54-24.2 54-54c-.1-29.8-24.2-53.9-54-54z" fill="#fcac27"/><path d="m186.8 134.5c-29.8 0-54 24.2-54 54s24.2 54 54 54 54-24.2 54-54-24.2-54-54-54z" fill="#fcac27"/><path d="m193 103.5 18.8-18.8c2.5-2.5 2.5-6.7 0-9.2 0 0-.1-.1-.1-.1-2.7-2.4-6.8-2.2-9.3.3l-7.5 7.5v-19.4c0-17.3-12.8-31.9-29.9-34.1l-3.4-.4c-.9-.1-1.7.5-1.8 1.4-.1.7.3 1.4 1 1.7 12.8 5.3 21.1 17.9 21.1 31.7v19.2l-7.5-7.5c-2.5-2.6-6.6-2.7-9.3-.3-2.6 2.5-2.7 6.6-.3 9.2 0 0 .1.1.1.1l18.8 18.8c2.6 2.5 6.7 2.5 9.3-.1z" fill="#45bdf0"/><path d="m63.1 152.6-18.8 18.8c-2.5 2.5-2.5 6.7 0 9.2 0 0 .1.1.1.1 2.7 2.4 6.8 2.2 9.3-.3l7.5-7.5v19.4c0 17.3 12.8 31.9 29.9 34.1l3.4.4c.9.1 1.7-.5 1.8-1.4.1-.7-.3-1.4-1-1.7-12.8-5.3-21.1-17.9-21.1-31.7v-19l7.5 7.5c2.5 2.6 6.6 2.7 9.3.3 2.6-2.5 2.7-6.6.3-9.2 0 0-.1-.1-.1-.1l-18.8-18.8c-2.6-2.6-6.7-2.6-9.3-.1z" fill="#45bdf0"/><path d="m76.2 95.4h-22.5c-1.4 0-2.5-1.1-2.5-2.5s1.1-2.5 2.5-2.5h22.5c5.6 0 10.2-4.6 10.2-10.2s-4.6-10.2-10.2-10.2h-14.1c-8.4 0-15.2-6.8-15.2-15.2s6.8-15.2 15.2-15.2h19.9c1.4 0 2.5 1.1 2.5 2.5s-1.1 2.5-2.5 2.5h-19.9c-5.6 0-10.2 4.6-10.2 10.2s4.6 10.2 10.2 10.2h14.1c8.4 0 15.2 6.8 15.2 15.2s-6.8 15.2-15.2 15.2z"/><path d="m69.2 104.1c-1.4 0-2.5-1.1-2.5-2.5v-68.2c0-1.4 1.1-2.5 2.5-2.5s2.5 1.1 2.5 2.5v68.2c0 1.4-1.1 2.5-2.5 2.5z"/><path d="m69.2 124c-31.2 0-56.5-25.3-56.5-56.5s25.3-56.5 56.5-56.5 56.5 25.3 56.5 56.5c-.1 31.2-25.3 56.5-56.5 56.5zm0-108c-28.4 0-51.5 23.1-51.5 51.5s23 51.5 51.5 51.5 51.5-23.1 51.5-51.5c-.1-28.4-23.1-51.4-51.5-51.5z"/><path d="m69.2 135c-37.3 0-67.5-30.2-67.5-67.5s30.2-67.5 67.5-67.5 67.5 30.2 67.5 67.5-30.2 67.5-67.5 67.5zm0-130c-34.5 0-62.5 28-62.5 62.5s28 62.5 62.5 62.5 62.5-28 62.5-62.5-28-62.5-62.5-62.5z"/><path d="m186.8 245c-31.2 0-56.5-25.3-56.5-56.5s25.3-56.5 56.5-56.5 56.5 25.3 56.5 56.5-25.3 56.4-56.5 56.5zm0-108c-28.4 0-51.5 23.1-51.5 51.5s23.1 51.5 51.5 51.5 51.5-23.1 51.5-51.5-23.1-51.5-51.5-51.5z"/><path d="m186.8 256c-37.3 0-67.5-30.2-67.5-67.5s30.2-67.5 67.5-67.5 67.5 30.2 67.5 67.5-30.2 67.5-67.5 67.5zm0-130c-34.5 0-62.5 28-62.5 62.5s28 62.5 62.5 62.5 62.5-28 62.5-62.5-28-62.5-62.5-62.5z"/><path d="m188.4 107.9c-2.4 0-4.7-.9-6.4-2.6l-18.8-18.8c-3.5-3.5-3.5-9.2 0-12.7l.2-.2c3.7-3.3 9.3-3.1 12.7.4l3.2 3.2v-13.1c0-12.9-7.7-24.5-19.6-29.4-2.1-.9-3.1-3.3-2.2-5.4.7-1.7 2.5-2.8 4.3-2.5l3.4.4c18.4 2.4 32.1 18.1 32.1 36.6v13.4l3.2-3.2c3.5-3.5 9.1-3.7 12.7-.4 3.6 3.4 3.8 9.1.4 12.7-.1.1-.1.1-.2.2l-18.8 18.8c-1.6 1.7-3.9 2.7-6.2 2.6zm-18.9-31.7c-1 0-1.9.4-2.7 1-1.6 1.5-1.7 4-.2 5.7 0 0 .1.1.1.1l18.8 18.8c1.6 1.6 4.1 1.6 5.7 0l18.8-18.8c1.6-1.6 1.6-4.1 0-5.7 0 0-.1-.1-.1-.1-1.7-1.5-4.2-1.3-5.8.3l-7.5 7.5c-1 1-2.6 1-3.5 0-.5-.5-.7-1.1-.7-1.8v-19.4c0-15.3-10.8-28.4-25.8-31.3 11.1 6.7 17.8 18.6 17.8 31.6v19.2c0 1.4-1.1 2.5-2.5 2.5-.7 0-1.3-.3-1.8-.7l-7.5-7.5c-.8-.9-2-1.4-3.1-1.4z"/><path d="m94.8 229.4c-.2 0-.4 0-.6 0l-3.4-.4c-18.4-2.4-32.1-18.1-32.1-36.6v-13.4l-3.2 3.2c-3.5 3.5-9.1 3.7-12.7.4-3.6-3.4-3.8-9.1-.4-12.7l.2-.2 18.8-18.8c3.5-3.5 9.2-3.5 12.7 0l18.8 18.8c3.5 3.5 3.5 9.2 0 12.7-.1.1-.1.1-.2.2-3.7 3.3-9.3 3.1-12.7-.4l-3.2-3.2v13.1c0 12.9 7.7 24.5 19.6 29.4 2.1.9 3.1 3.3 2.2 5.4-.7 1.5-2.2 2.5-3.8 2.5zm-33.6-58.9c1.4 0 2.5 1.1 2.5 2.5v19.4c0 15.3 10.8 28.4 25.8 31.3-11-6.7-17.8-18.7-17.8-31.6v-19.1c0-1.4 1.1-2.5 2.5-2.5.7 0 1.3.3 1.8.7l7.5 7.5c1.5 1.6 4.1 1.7 5.8.3 1.6-1.5 1.7-4 .2-5.7 0 0-.1-.1-.1-.1l-18.8-18.8c-1.6-1.6-4.1-1.6-5.7 0l-18.8 18.8c-1.6 1.6-1.6 4.1 0 5.7 0 0 .1.1.1.1 1.7 1.5 4.2 1.3 5.8-.3l7.5-7.5c.4-.5 1-.7 1.7-.7z"/><path d="m190.4 221.6c-18.3 0-33.1-14.8-33.1-33 0-18.3 14.8-33.1 33-33.1 5.5 0 10.8 1.4 15.7 3.9 1.2.7 1.7 2.2 1 3.4s-2.2 1.7-3.4 1c-13.6-7.3-30.6-2.2-38 11.4-7.3 13.6-2.2 30.6 11.4 38 8.3 4.5 18.3 4.5 26.5 0 1.2-.7 2.7-.2 3.4 1s.2 2.7-1 3.4c-4.7 2.6-10.1 3.9-15.5 4z"/><path d="m191.2 183.1h-37.7c-1.4 0-2.5-1.1-2.5-2.5s1.1-2.5 2.5-2.5h37.7c1.4 0 2.5 1.1 2.5 2.5s-1.1 2.5-2.5 2.5z"/><path d="m191.2 198.8h-37.7c-1.4 0-2.5-1.1-2.5-2.5s1.1-2.5 2.5-2.5h37.7c1.4 0 2.5 1.1 2.5 2.5s-1.1 2.5-2.5 2.5z"/></svg>