<?xml version="1.0" encoding="UTF-8"?>
<svg xmlns="http://www.w3.org/2000/svg" id="a" width="800" height="800" viewBox="0 0 800 800">
  <defs>
    <style>.b{fill:#003652;}</style>
  </defs>
  <path class="b" d="M400.0001,757.5c-48.2588,0-95.0781-9.4531-139.1572-28.0977-42.5718-18.0059-80.8037-43.7822-113.6338-76.6113-32.8296-32.8301-58.6055-71.0615-76.6118-113.6338-18.644-44.0791-28.0972-90.8984-28.0972-139.1572s9.4531-95.0781,28.0972-139.1572c18.0063-42.5723,43.7822-80.8037,76.6118-113.6338,32.8301-32.8291,71.062-58.6055,113.6338-76.6113,44.0791-18.6445,90.8984-28.0977,139.1572-28.0977s95.0781,9.4531,139.1572,28.0977c42.5718,18.0059,80.8037,43.7822,113.6333,76.6113,32.8296,32.8301,58.606,71.0615,76.6123,113.6338,18.644,44.0791,28.0972,90.8984,28.0972,139.1572s-9.4531,95.0781-28.0972,139.1572c-18.0063,42.5723-43.7827,80.8037-76.6123,113.6338-32.8296,32.8291-71.0615,58.6055-113.6333,76.6113-44.0791,18.6445-90.8984,28.0977-139.1572,28.0977Zm0-700c-91.4854,0-177.4946,35.626-242.1841,100.3154-64.6895,64.6904-100.3159,150.6992-100.3159,242.1846s35.6265,177.4941,100.3159,242.1846c64.6895,64.6895,150.6987,100.3154,242.1841,100.3154s177.4941-35.626,242.1841-100.3154c64.6895-64.6904,100.3159-150.6992,100.3159-242.1846s-35.6265-177.4941-100.3159-242.1846c-64.6899-64.6895-150.6992-100.3154-242.1841-100.3154Z"></path>
  <g>
    <g>
      <path class="b" d="M347.6759,443.0186c-20.7012-7.9707-34.6099-28.2334-34.6099-50.4209,0-29.7822,24.23-54.0127,54.0127-54.0127,25.5464,0,47.8008,18.1406,52.9155,43.1348l-14.6953,3.0078c-3.6929-18.0449-19.7666-31.1426-38.2202-31.1426-21.5117,0-39.0127,17.501-39.0127,39.0127,0,16.0283,10.0464,30.665,24.9995,36.4229l-5.3896,13.998Z"></path>
      <rect class="b" x="359.5788" y="209.0254" width="15" height="98.5762"></rect>
      <rect class="b" x="183.506" y="385.0977" width="98.5771" height="15"></rect>
      <rect class="b" x="264.6254" y="248.3558" width="15.0005" height="98.5765" transform="translate(-130.7624 279.5998) rotate(-45)"></rect>
      <rect class="b" x="412.7432" y="290.1438" width="98.5768" height="15.0005" transform="translate(-75.1455 413.8589) rotate(-44.9974)"></rect>
    </g>
    <path class="b" d="M558.7487,558.4727h-200.6289c-35.9761,0-65.2446-29.2686-65.2446-65.2451s29.2686-65.2441,65.2446-65.2441c22.9087,0,44.416,12.248,56.1284,31.9629l-12.8955,7.6621c-9.0234-15.1895-25.5894-24.625-43.2329-24.625-27.7051,0-50.2446,22.5391-50.2446,50.2441s22.5396,50.2451,50.2446,50.2451h200.6289c27.7051,0,50.2451-22.54,50.2451-50.2451,0-21.2383-13.4492-40.2734-33.4668-47.3652l-8.1411-2.8838,3.9971-7.6562c2.5112-4.8105,3.7842-9.9863,3.7842-15.3857,0-18.3789-14.9526-33.332-33.3315-33.332-8.5864,0-16.7554,3.2871-23.001,9.2559l-5.751,5.4951-5.1479-6.0635c-11.9121-14.0312-29.2764-22.0781-47.6401-22.0781-27.811,0-52.5312,18.6621-60.1152,45.3818l-14.4297-4.0957c9.4062-33.1406,40.0601-56.2861,74.5449-56.2861,20.3135,0,39.6387,7.9365,54.0566,21.9932,8.0386-5.5879,17.5654-8.6025,27.4834-8.6025,26.6499,0,48.3315,21.6816,48.3315,48.332,0,5.0381-.8057,10.0723-2.3608,14.8711,21.9277,10.916,36.1875,33.499,36.1875,58.4199,0,35.9766-29.269,65.2451-65.2451,65.2451Z"></path>
  </g>
</svg>
