<?xml version="1.0" ?><!DOCTYPE svg  PUBLIC '-//W3C//DTD SVG 1.1//EN'  'http://www.w3.org/Graphics/SVG/1.1/DTD/svg11.dtd'><svg height="2048px" style="shape-rendering:geometricPrecision; text-rendering:geometricPrecision; image-rendering:optimizeQuality; fill-rule:evenodd; clip-rule:evenodd" viewBox="0 0 2048 2048" width="2048px" xml:space="preserve" xmlns="http://www.w3.org/2000/svg" xmlns:xlink="http://www.w3.org/1999/xlink"><defs><style type="text/css">
   <![CDATA[
    .fil1 {fill:none}
    .fil0 {fill:#0274B3;fill-rule:nonzero}
   ]]>
  </style></defs><g id="Layer_x0020_1"><path class="fil0" d="M1710.49 1776l-294.679 0 -16.0004 0 0 -16.0004 0 -638.578c0,-34.3276 -4.61221,-63.0827 -18.9921,-82.3028 -13.8,-18.4441 -38.0303,-29.2134 -78.1418,-29.2134 -129.835,0 -162.302,98.4166 -166.487,113.362l0 636.732 0 15.9992 -16.0004 0.0011811 -294.629 0 -16.0004 0 0 -16.0004 0 -1033.63 0 -16.0004 16.0004 0 294.629 0 16.0004 0 0 16.0004 0 68.3634c21.854,-14.1957 50.8973,-30.6591 86.3044,-45.2008 51.7843,-21.2658 117.108,-38.4319 193.317,-38.4319 60.7843,0 160.807,21.6886 231.193,117.934 46.2508,63.2434 79.4871,158.594 79.4871,301.016l0 629.947 0 16.0004 -16.0004 0z"/><path class="fil0" d="M485.321 581.524c-42.6095,0 -81.2469,-17.3551 -109.227,-45.4843 -27.9024,-28.0488 -45.1701,-66.776 -45.1701,-109.644 0,-42.6177 17.2961,-81.2138 45.2363,-109.154 27.9496,-27.9496 66.5575,-45.2433 109.161,-45.2433l0.125197 0.0625985c42.6237,0.408662 81.1772,17.8536 109.041,45.717 27.9414,27.9425 45.2292,66.3591 45.2292,108.618 0,42.874 -17.2595,81.606 -45.1618,109.657 -27.9732,28.1209 -66.6048,45.4713 -109.233,45.4713z"/><polygon class="fil0" points="633.132,1776 337.51,1776 321.509,1776 321.509,1760 321.509,726.371 321.509,710.371 337.51,710.371 633.132,710.371 649.132,710.371 649.132,726.371 649.132,1760 649.132,1776 "/></g><rect class="fil1" height="2048" width="2048"/></svg>